<svg xmlns="http://www.w3.org/2000/svg" viewBox="0 0 147.652 95.921" fill="#FFFFFF"><g transform="translate(-144.245 -495.443)"><path d="M191.638 497.269C200.344 497.426 208.9 500.172 216.493 505.846C217.474 506.579 217.766 507.051 216.87 508.131C213.283 512.45 210.659 517.333 208.716 522.592C208.042 524.416 208.031 524.412 206.617 523.179C197.095 514.875 184.221 514.761 175.25 523.234C168.432 529.673 166.164 537.727 168.964 546.726C171.75 555.681 178.029 561.22 187.34 562.665C201.62 564.882 213.855 554.224 213.939 539.811C214.062 518.68 229.342 500.693 250.367 497.761C266.99 495.443 280.599 501.362 291.015 514.57C291.897 515.687 291.689 516.248 290.569 516.984C286.016 519.976 281.488 523.008 277.016 526.117C275.929 526.872 275.471 526.663 274.677 525.707C268.668 518.468 260.897 515.492 251.747 517.489C242.368 519.535 236.575 525.674 234.148 534.985C233.331 538.118 233.754 541.33 233.358 544.494C231.525 559.163 224.237 570.311 211.354 577.389C185.913 591.364 154.778 576.638 148.969 548.116C144.245 524.923 160.431 501.615 183.824 497.914C186.173 497.542 188.528 497.266 191.638 497.269"></path><path d="M256.975 582.707C247.214 582.511 238.661 579.749 231.049 574.116C229.962 573.311 229.835 572.787 230.742 571.69C234.356 567.318 237.033 562.388 238.906 557.04C239.353 555.766 239.586 555.471 240.744 556.533C251.132 566.061 265.85 564.975 274.81 554.025C275.575 553.091 276.016 553.179 276.89 553.781C281.473 556.935 286.088 560.044 290.723 563.121C291.628 563.721 291.875 564.156 291.14 565.135C284.251 574.313 275.186 579.953 263.902 582.013C261.505 582.45 259.077 582.626 256.975 582.707"></path></g></svg>