<svg xmlns="http://www.w3.org/2000/svg" viewBox="0 0 787.607 95.921" fill="#A41E1E"><g transform="translate(-144.245 -495.443)"><path d="M355.551 540C355.551 530.532 348.429 523.41 339.135 523.41C329.754 523.41 322.632 530.532 322.632 540C322.632 549.467 329.754 556.59 339.135 556.59C348.429 556.59 355.551 549.467 355.551 540M307.345 540C307.345 522.367 320.982 508.991 339.135 508.991C357.201 508.991 370.925 522.367 370.925 540C370.925 557.632 357.201 571.008 339.135 571.008C320.982 571.008 307.345 557.632 307.345 540"></path><path d="M393.681 524.105L393.681 537.394L405.754 537.394C409.489 537.394 412.268 534.528 412.268 530.706C412.268 526.971 409.489 524.105 405.754 524.105ZM378.741 510.034L406.102 510.034C418.349 510.034 427.555 518.806 427.555 530.619C427.555 538.784 422.952 545.298 415.917 548.425L429.38 569.966L410.879 569.966L399.5 550.423L393.681 550.423L393.681 569.966L378.741 569.966Z"></path><path d="M435.46 510.034L450.4 510.034L450.4 569.966L435.46 569.966Z"></path><path d="M506.423 540C506.423 530.532 499.301 523.41 490.007 523.41C480.626 523.41 473.504 530.532 473.504 540C473.504 549.467 480.626 556.59 490.007 556.59C499.301 556.59 506.423 549.467 506.423 540M458.217 540C458.217 522.367 471.854 508.991 490.007 508.991C508.073 508.991 521.797 522.367 521.797 540C521.797 557.632 508.073 571.008 490.007 571.008C471.854 571.008 458.217 557.632 458.217 540"></path><path d="M529.613 510.034L544.553 510.034L567.049 543.909L567.049 510.034L581.988 510.034L581.988 569.966L567.049 569.966L544.553 536.092L544.553 569.966L529.613 569.966Z"></path><path d="M191.638 497.269C200.344 497.426 208.9 500.172 216.493 505.846C217.474 506.579 217.766 507.051 216.87 508.131C213.283 512.45 210.659 517.333 208.716 522.592C208.042 524.416 208.031 524.412 206.617 523.179C197.095 514.875 184.221 514.761 175.25 523.234C168.432 529.673 166.164 537.727 168.964 546.726C171.75 555.681 178.029 561.22 187.34 562.665C201.62 564.882 213.855 554.224 213.939 539.811C214.062 518.68 229.342 500.693 250.367 497.761C266.99 495.443 280.599 501.362 291.015 514.57C291.897 515.687 291.689 516.248 290.569 516.984C286.016 519.976 281.488 523.008 277.016 526.117C275.929 526.872 275.471 526.663 274.677 525.707C268.668 518.468 260.897 515.492 251.747 517.489C242.368 519.535 236.575 525.674 234.148 534.985C233.331 538.118 233.754 541.33 233.358 544.494C231.525 559.163 224.237 570.311 211.354 577.389C185.913 591.364 154.778 576.638 148.969 548.116C144.245 524.923 160.431 501.615 183.824 497.914C186.173 497.542 188.528 497.266 191.638 497.269"></path><path d="M590.761 540C590.761 522.367 604.397 508.991 622.29 508.991C637.316 508.991 649.303 518.459 652.256 531.748L641.312 531.748C638.619 524.105 631.237 518.98 622.29 518.98C610.478 518.98 601.444 528.013 601.444 540C601.444 551.986 610.478 561.019 622.29 561.019C631.237 561.019 638.619 555.895 641.312 548.251L652.256 548.251C649.303 561.541 637.316 571.008 622.29 571.008C604.397 571.008 590.761 557.632 590.761 540"></path><path d="M672.147 519.762L672.147 538.61L687.781 538.61C693.08 538.61 697.075 534.528 697.075 529.142C697.075 523.757 693.08 519.762 687.781 519.762ZM661.811 510.034L688.042 510.034C699.16 510.034 707.672 518.198 707.672 529.056C707.672 538.002 701.765 544.951 693.427 547.035L709.496 569.966L696.554 569.966L681.441 547.643L672.147 547.643L672.147 569.966L661.811 569.966Z"></path><path d="M751.449 547.643L741.46 521.325L731.472 547.643ZM735.467 510.034L747.714 510.034L771.339 569.966L759.961 569.966L755.097 557.198L727.823 557.198L722.959 569.966L711.842 569.966Z"></path><path d="M778.287 510.034L788.797 510.034L818.763 552.421L818.763 510.034L829.099 510.034L829.099 569.966L818.589 569.966L788.623 527.579L788.623 569.966L778.287 569.966Z"></path><path d="M842.127 510.034L881.126 510.034L881.126 519.762L852.463 519.762L852.463 534.962L878.26 534.962L878.26 544.69L852.463 544.69L852.463 560.238L881.561 560.238L881.561 569.966L842.127 569.966Z"></path><path d="M888.075 552.594L898.672 552.594C898.672 557.806 903.709 561.714 910.224 561.714C916.304 561.714 921.168 558.414 921.168 553.636C921.168 541.737 889.117 547.122 889.117 526.711C889.117 515.94 898.325 508.992 909.877 508.992C921.776 508.992 930.809 516.548 930.809 526.624L920.212 526.624C920.212 521.847 915.696 518.285 909.703 518.285C904.317 518.285 899.714 521.239 899.714 525.929C899.714 537.828 931.852 531.661 931.852 552.508C931.852 563.712 922.211 571.008 910.137 571.008C897.542 571.008 888.075 563.017 888.075 552.594"></path><path d="M256.975 582.707C247.214 582.511 238.661 579.749 231.049 574.116C229.962 573.311 229.835 572.787 230.742 571.69C234.356 567.318 237.033 562.388 238.906 557.04C239.353 555.766 239.586 555.471 240.744 556.533C251.132 566.061 265.85 564.975 274.81 554.025C275.575 553.091 276.016 553.179 276.89 553.781C281.473 556.935 286.088 560.044 290.723 563.121C291.628 563.721 291.875 564.156 291.14 565.135C284.251 574.313 275.186 579.953 263.902 582.013C261.505 582.45 259.077 582.626 256.975 582.707"></path></g></svg>